<svg xmlns="http://www.w3.org/2000/svg" height="20" viewBox="0 -960 960 960" width="20"><path d="M219.077-219.077h35.462L667.077-631.5 631.5-667.077 219.077-254.423v35.346Zm-28.923 28.923v-77L682.461-761.5q4.527-4.948 9.541-6.647 5.015-1.699 10.746-1.699 5.593 0 10.557 1.48 4.964 1.481 11.349 6.097l36.846 35.961q4.616 5.885 6.481 10.835 1.865 4.95 1.865 10.575 0 6-2.096 11.533-2.096 5.533-6.318 9.703L267.154-190.154h-77Zm551.538-514.423-37.115-37.115 37.115 37.115Zm-92.679 55.564L631.5-667.077l35.577 35.577-18.064-17.513Z"/></svg>